<svg width="22" height="22" viewBox="0 0 22 22" fill="none" xmlns="http://www.w3.org/2000/svg">
<path fill-rule="evenodd" clip-rule="evenodd" d="M12.3823 20.2647C12.3823 21.0931 11.7108 21.7647 10.8823 21.7647C10.0539 21.7647 9.38232 21.0931 9.38232 20.2647V12.3824H1.5C0.671573 12.3824 0 11.7108 0 10.8824C0 10.0539 0.671573 9.38235 1.5 9.38235H9.38232V1.5C9.38232 0.671572 10.0539 0 10.8823 0C11.7108 0 12.3823 0.671572 12.3823 1.5V9.38235H20.2647C21.0931 9.38235 21.7647 10.0539 21.7647 10.8824C21.7647 11.7108 21.0931 12.3824 20.2647 12.3824H12.3823V20.2647Z" fill="white"/>
</svg>
