<svg width="20" height="19" viewBox="0 0 20 19" fill="none" xmlns="http://www.w3.org/2000/svg">
<path fill-rule="evenodd" clip-rule="evenodd" d="M7 0C7.55228 0 8 0.447715 8 1C8 1.55228 7.55228 2 7 2H2V7C2 7.55228 1.55228 8 1 8C0.447715 8 0 7.55228 0 7V1V0H1H7ZM13 0C12.4477 0 12 0.447715 12 1C12 1.55228 12.4477 2 13 2H18V7C18 7.55228 18.4477 8 19 8C19.5523 8 20 7.55228 20 7V1V0H19H13ZM12 18C12 18.5523 12.4477 19 13 19H19H20V18V12C20 11.4477 19.5523 11 19 11C18.4477 11 18 11.4477 18 12V17H13C12.4477 17 12 17.4477 12 18ZM7 19C7.55228 19 8 18.5523 8 18C8 17.4477 7.55228 17 7 17H2V12C2 11.4477 1.55228 11 1 11C0.447715 11 0 11.4477 0 12V18V19H1H7Z" fill="white"/>
</svg>
