<svg width="24" height="22" viewBox="0 0 24 22" fill="none" xmlns="http://www.w3.org/2000/svg">
<path d="M12 21.3523C11.6583 21.3523 11.3289 21.2285 11.0722 21.0037C10.1026 20.1559 9.16789 19.3592 8.34318 18.6564L8.33897 18.6528C5.92107 16.5923 3.83312 14.8129 2.38037 13.06C0.756407 11.1004 0 9.24243 0 7.21271C0 5.24066 0.676207 3.42133 1.90393 2.0896C3.1463 0.742126 4.851 0 6.70458 0C8.08995 0 9.35869 0.437988 10.4754 1.3017C11.039 1.73767 11.5499 2.27124 12 2.89362C12.4502 2.27124 12.9609 1.73767 13.5247 1.3017C14.6415 0.437988 15.9102 0 17.2956 0C19.149 0 20.8538 0.742126 22.0962 2.0896C23.3239 3.42133 24 5.24066 24 7.21271C24 9.24243 23.2437 11.1004 21.6198 13.0598C20.167 14.8129 18.0793 16.5921 15.6617 18.6524C14.8355 19.3563 13.8993 20.1542 12.9276 21.004C12.6711 21.2285 12.3415 21.3523 12 21.3523ZM6.70458 1.40588C5.24834 1.40588 3.91058 1.98706 2.93737 3.04248C1.9497 4.11383 1.4057 5.59479 1.4057 7.21271C1.4057 8.9198 2.04016 10.4465 3.4627 12.163C4.83764 13.8221 6.88274 15.5649 9.25065 17.5829L9.25505 17.5865C10.0829 18.2921 11.0213 19.0919 11.998 19.9459C12.9805 19.0902 13.9204 18.2891 14.7499 17.5825C17.1176 15.5645 19.1625 13.8221 20.5374 12.163C21.9598 10.4465 22.5943 8.9198 22.5943 7.21271C22.5943 5.59479 22.0503 4.11383 21.0626 3.04248C20.0896 1.98706 18.7516 1.40588 17.2956 1.40588C16.2288 1.40588 15.2494 1.745 14.3846 2.4137C13.6139 3.00989 13.077 3.76355 12.7622 4.29089C12.6004 4.56207 12.3155 4.72394 12 4.72394C11.6845 4.72394 11.3996 4.56207 11.2377 4.29089C10.9231 3.76355 10.3863 3.00989 9.6154 2.4137C8.75059 1.745 7.77116 1.40588 6.70458 1.40588Z" fill="black"/>
</svg>
