<svg width="24" height="24" viewBox="0 0 24 24" fill="none" xmlns="http://www.w3.org/2000/svg">
<g clip-path="url(#clip0)">
<path fill-rule="evenodd" clip-rule="evenodd" d="M23 3C22.4477 3 22 3.44772 22 4V9H17C16.4477 9 16 9.44772 16 10C16 10.5523 16.4477 11 17 11H23C23.5523 11 24 10.5523 24 10V4C24 3.44772 23.5523 3 23 3Z" fill="white"/>
<path fill-rule="evenodd" clip-rule="evenodd" d="M13.3946 2.10682C11.2477 1.80476 9.06079 2.20862 7.16335 3.25754C5.26592 4.30646 3.76077 5.94363 2.8747 7.92236C1.98863 9.90109 1.76963 12.1142 2.2507 14.2282C2.73178 16.3422 3.88686 18.2426 5.54192 19.6431C7.19697 21.0435 9.26234 21.8682 11.4268 21.9928C13.5913 22.1173 15.7376 21.5351 17.5424 20.3338C19.3472 19.1324 20.7127 17.3771 21.4332 15.3322C21.6167 14.8113 21.3432 14.2403 20.8223 14.0568C20.3014 13.8733 19.7303 14.1468 19.5468 14.6677C18.9705 16.3035 17.8781 17.7078 16.4342 18.6689C14.9904 19.6299 13.2733 20.0957 11.5417 19.9961C9.81016 19.8964 8.15786 19.2367 6.83382 18.1163C5.50977 16.996 4.5857 15.4756 4.20085 13.7844C3.81599 12.0932 3.99119 10.3227 4.70004 8.73974C5.4089 7.15676 6.61302 5.84703 8.13097 5.00789C9.64892 4.16875 11.3985 3.84567 13.116 4.08731C14.8335 4.32896 16.426 5.12225 17.6535 6.34765C17.6606 6.35478 17.6679 6.3618 17.6752 6.3687L22.3152 10.7287C22.7177 11.1069 23.3506 11.0872 23.7288 10.6847C24.1069 10.2822 24.0873 9.64939 23.6848 9.2712L19.0555 4.92128C17.5227 3.39576 15.5364 2.40816 13.3946 2.10682Z" fill="white"/>
</g>
<defs>
<clipPath id="clip0">
<path d="M24 0H0V24H24V0Z" fill="white"/>
</clipPath>
</defs>
</svg>
