<svg width="11" height="14" viewBox="0 0 11 14" fill="none" xmlns="http://www.w3.org/2000/svg">
<path d="M10.0925 7.57295C10.1817 7.51218 10.2548 7.43064 10.3054 7.33535C10.3561 7.24006 10.3829 7.13388 10.3834 7.02595C10.3839 6.91802 10.3582 6.81159 10.3084 6.71581C10.2587 6.62003 10.1864 6.53778 10.0978 6.47614L1.4539 0.429452C1.3542 0.359463 1.23723 0.318136 1.11569 0.309959C0.994156 0.301783 0.872702 0.32707 0.764527 0.383074C0.656352 0.439078 0.565593 0.523656 0.502112 0.627619C0.438631 0.731583 0.404855 0.850955 0.404454 0.972767L0.346014 12.9817C0.345925 13.1033 0.378966 13.2225 0.441585 13.3267C0.504205 13.4308 0.594032 13.5159 0.701408 13.5729C0.808784 13.6298 0.929646 13.6564 1.051 13.6497C1.17235 13.6431 1.28959 13.6035 1.39013 13.5352L10.0925 7.57295Z" fill="#397294"/>
</svg>
